<mxfile host="app.diagrams.net" agent="Mozilla/5.0 (Macintosh; Intel Mac OS X 10.15; rv:109.0) Gecko/20100101 Firefox/115.0" version="24.7.8">
  <diagram name="Page-1" id="2gTbYq56GtPmGuHCsJ8z">
    <mxGraphModel>
      <root>
        <mxCell id="0" />
        <mxCell id="1" parent="0" />
      </root>
    </mxGraphModel>
  </diagram>
</mxfile>
